<svg xmlns="http://www.w3.org/2000/svg" xmlns:xlink="http://www.w3.org/1999/xlink" viewBox="0,0,256,256" width="24px" height="24px" fill-rule="nonzero"><g fill="#ffffff" fill-rule="nonzero" stroke="none" stroke-width="1" stroke-linecap="butt" stroke-linejoin="miter" stroke-miterlimit="10" stroke-dasharray="" stroke-dashoffset="0" font-family="none" font-weight="none" font-size="none" text-anchor="none" style="mix-blend-mode: normal"><g transform="scale(10.66667,10.66667)"><path d="M15,19.989h-6c-3.314,0 -6,-2.686 -6,-6v0c0,-4.971 4.029,-9 9,-9v0c4.971,0 9,4.029 9,9v0c0,3.314 -2.686,6 -6,6z" opacity="0.35"></path><path d="M24,12.989v2c0,1.1 -0.9,2 -2,2h-1.81c0.52,-0.88 0.81,-1.9 0.81,-3c0,-1.05 -0.18,-2.06 -0.52,-3h1.52c1.1,0 2,0.9 2,2z"></path><path d="M3.81,16.989h-1.81c-1.1,0 -2,-0.9 -2,-2v-2c0,-1.1 0.9,-2 2,-2h1.52c-0.34,0.94 -0.52,1.95 -0.52,3c0,1.1 0.29,2.12 0.81,3z"></path><path d="M3.209,12.021l-1.919,-0.564c1.514,-5.144 5.717,-8.468 10.71,-8.468v2c-4.083,0 -7.534,2.761 -8.791,7.032z"></path><path d="M20.791,12.021c-1.257,-4.271 -4.708,-7.032 -8.791,-7.032v-2c4.993,0 9.196,3.324 10.709,8.468z"></path><path d="M15,9.989h-6c-2.209,0 -4,1.791 -4,4c0,2.209 1.791,4 4,4h6c2.209,0 4,-1.791 4,-4c0,-2.209 -1.791,-4 -4,-4zM10,15.489c-0.552,0 -1,-0.447 -1,-1c0,-0.275 -0.224,-0.5 -0.5,-0.5c-0.276,0 -0.5,0.225 -0.5,0.5c0,0.553 -0.448,1 -1,1c-0.552,0 -1,-0.447 -1,-1c0,-1.379 1.122,-2.5 2.5,-2.5c1.378,0 2.5,1.121 2.5,2.5c0,0.553 -0.448,1 -1,1zM17,15.489c-0.552,0 -1,-0.447 -1,-1c0,-0.275 -0.224,-0.5 -0.5,-0.5c-0.276,0 -0.5,0.225 -0.5,0.5c0,0.553 -0.448,1 -1,1c-0.552,0 -1,-0.447 -1,-1c0,-1.379 1.122,-2.5 2.5,-2.5c1.378,0 2.5,1.121 2.5,2.5c0,0.553 -0.448,1 -1,1z"></path></g></g></svg>